<?xml version="1.0" standalone="no"?>
<!DOCTYPE svg PUBLIC "-//W3C//DTD SVG 20010904//EN"
 "http://www.w3.org/TR/2001/REC-SVG-20010904/DTD/svg10.dtd">
<svg version="1.0" xmlns="http://www.w3.org/2000/svg"
 width="64.000000pt" height="64.000000pt" viewBox="0 0 64.000000 64.000000"
 preserveAspectRatio="xMidYMid meet">

<g transform="translate(0.000000,64.000000) scale(0.100000,-0.100000)"
fill="#000000" stroke="none">
<path d="M240 547 c-49 -16 -133 -102 -148 -153 -28 -94 -8 -169 63 -239 102
-103 243 -101 338 5 90 100 90 220 0 320 -65 72 -158 97 -253 67z m190 -61
c59 -39 85 -89 85 -166 0 -78 -26 -127 -88 -168 -56 -37 -153 -39 -210 -3 -76
47 -111 140 -88 229 14 51 75 117 123 131 53 16 135 6 178 -23z"/>
<path d="M205 390 c-13 -21 4 -59 31 -66 43 -11 47 9 10 45 -22 22 -36 29 -41
21z"/>
<path d="M391 366 c-35 -36 -29 -53 14 -42 15 4 27 16 31 32 11 43 -9 47 -45
10z"/>
<path d="M315 260 c-21 -15 -39 -19 -62 -15 -38 7 -54 -12 -28 -32 27 -19 62
-16 101 8 24 14 43 19 63 14 35 -7 51 19 21 35 -29 15 -62 12 -95 -10z"/>
</g>
</svg>
